<mxfile host="app.diagrams.net" agent="Mozilla/5.0 (X11; Linux x86_64) AppleWebKit/537.36 (KHTML, like Gecko) Chrome/131.0.0.0 Safari/537.36" version="25.0.1">
  <diagram name="Page-1" id="wd-FCcZww2UWUEa7U--q">
    <mxGraphModel dx="1070" dy="572" grid="1" gridSize="10" guides="1" tooltips="1" connect="1" arrows="1" fold="1" page="1" pageScale="1" pageWidth="827" pageHeight="1169" math="0" shadow="0">
      <root>
        <mxCell id="0" />
        <mxCell id="1" parent="0" />
        <mxCell id="qYFcMBaQuR15zJ8DIfbp-3" value="" style="group" vertex="1" connectable="0" parent="1">
          <mxGeometry x="120" y="100" width="120" height="60" as="geometry" />
        </mxCell>
        <mxCell id="qYFcMBaQuR15zJ8DIfbp-1" value="" style="rounded=0;whiteSpace=wrap;html=1;fillColor=#f5f5f5;fontColor=#333333;strokeColor=#666666;" vertex="1" parent="qYFcMBaQuR15zJ8DIfbp-3">
          <mxGeometry width="120" height="60" as="geometry" />
        </mxCell>
        <mxCell id="qYFcMBaQuR15zJ8DIfbp-2" value="SERVER&lt;div&gt;laukiam užklausų&lt;/div&gt;" style="text;strokeColor=none;align=center;fillColor=none;html=1;verticalAlign=middle;whiteSpace=wrap;rounded=0;" vertex="1" parent="qYFcMBaQuR15zJ8DIfbp-3">
          <mxGeometry y="10" width="120" height="40" as="geometry" />
        </mxCell>
        <mxCell id="qYFcMBaQuR15zJ8DIfbp-8" value="" style="group" vertex="1" connectable="0" parent="1">
          <mxGeometry x="50" y="230" width="80" height="80" as="geometry" />
        </mxCell>
        <mxCell id="qYFcMBaQuR15zJ8DIfbp-4" value="" style="whiteSpace=wrap;html=1;aspect=fixed;" vertex="1" parent="qYFcMBaQuR15zJ8DIfbp-8">
          <mxGeometry width="80" height="80" as="geometry" />
        </mxCell>
        <mxCell id="qYFcMBaQuR15zJ8DIfbp-5" value="&lt;font color=&quot;#6666ff&quot;&gt;Užklausa&lt;/font&gt;" style="text;strokeColor=none;align=center;fillColor=none;html=1;verticalAlign=middle;whiteSpace=wrap;rounded=0;" vertex="1" parent="qYFcMBaQuR15zJ8DIfbp-8">
          <mxGeometry width="60" height="30" as="geometry" />
        </mxCell>
        <mxCell id="qYFcMBaQuR15zJ8DIfbp-6" value="&lt;font color=&quot;#66ff66&quot;&gt;Atsakymas&lt;/font&gt;" style="text;strokeColor=none;align=center;fillColor=none;html=1;verticalAlign=middle;whiteSpace=wrap;rounded=0;" vertex="1" parent="qYFcMBaQuR15zJ8DIfbp-8">
          <mxGeometry x="20" y="50" width="60" height="30" as="geometry" />
        </mxCell>
        <mxCell id="qYFcMBaQuR15zJ8DIfbp-7" value="FRONTAS" style="text;strokeColor=none;align=center;fillColor=none;html=1;verticalAlign=middle;whiteSpace=wrap;rounded=0;" vertex="1" parent="qYFcMBaQuR15zJ8DIfbp-8">
          <mxGeometry x="9" y="25" width="60" height="30" as="geometry" />
        </mxCell>
        <mxCell id="qYFcMBaQuR15zJ8DIfbp-9" value="" style="endArrow=classic;html=1;rounded=0;strokeColor=#FF99FF;exitX=0.5;exitY=0;exitDx=0;exitDy=0;entryX=0;entryY=1;entryDx=0;entryDy=0;" edge="1" parent="1" source="qYFcMBaQuR15zJ8DIfbp-5" target="qYFcMBaQuR15zJ8DIfbp-1">
          <mxGeometry width="50" height="50" relative="1" as="geometry">
            <mxPoint x="390" y="320" as="sourcePoint" />
            <mxPoint x="440" y="270" as="targetPoint" />
          </mxGeometry>
        </mxCell>
        <mxCell id="qYFcMBaQuR15zJ8DIfbp-15" value="" style="group" vertex="1" connectable="0" parent="1">
          <mxGeometry x="500" y="90" width="160" height="40" as="geometry" />
        </mxCell>
        <mxCell id="qYFcMBaQuR15zJ8DIfbp-12" value="" style="rounded=0;whiteSpace=wrap;html=1;fillColor=#f8cecc;strokeColor=#b85450;" vertex="1" parent="qYFcMBaQuR15zJ8DIfbp-15">
          <mxGeometry width="160" height="40" as="geometry" />
        </mxCell>
        <mxCell id="qYFcMBaQuR15zJ8DIfbp-13" value="KONTROLERIS" style="text;strokeColor=none;align=center;fillColor=none;html=1;verticalAlign=middle;whiteSpace=wrap;rounded=0;" vertex="1" parent="qYFcMBaQuR15zJ8DIfbp-15">
          <mxGeometry x="50" width="60" height="30" as="geometry" />
        </mxCell>
        <mxCell id="qYFcMBaQuR15zJ8DIfbp-14" value="controller/user.controller.js" style="text;strokeColor=none;align=center;fillColor=none;html=1;verticalAlign=middle;whiteSpace=wrap;rounded=0;" vertex="1" parent="qYFcMBaQuR15zJ8DIfbp-15">
          <mxGeometry x="50" y="10" width="60" height="30" as="geometry" />
        </mxCell>
        <mxCell id="qYFcMBaQuR15zJ8DIfbp-17" value="" style="endArrow=classic;html=1;rounded=0;exitX=1;exitY=0;exitDx=0;exitDy=0;fillColor=#e1d5e7;strokeColor=#9673a6;entryX=0;entryY=0.25;entryDx=0;entryDy=0;" edge="1" parent="1" source="qYFcMBaQuR15zJ8DIfbp-1" target="qYFcMBaQuR15zJ8DIfbp-28">
          <mxGeometry width="50" height="50" relative="1" as="geometry">
            <mxPoint x="390" y="320" as="sourcePoint" />
            <mxPoint x="440" y="50" as="targetPoint" />
          </mxGeometry>
        </mxCell>
        <mxCell id="qYFcMBaQuR15zJ8DIfbp-20" value="" style="endArrow=classic;html=1;rounded=0;fillColor=#d5e8d4;strokeColor=#82b366;exitX=0;exitY=0.5;exitDx=0;exitDy=0;entryX=1;entryY=0.75;entryDx=0;entryDy=0;" edge="1" parent="1" source="qYFcMBaQuR15zJ8DIfbp-12" target="qYFcMBaQuR15zJ8DIfbp-2">
          <mxGeometry width="50" height="50" relative="1" as="geometry">
            <mxPoint x="350" y="160" as="sourcePoint" />
            <mxPoint x="270" y="170" as="targetPoint" />
          </mxGeometry>
        </mxCell>
        <mxCell id="qYFcMBaQuR15zJ8DIfbp-21" value="" style="endArrow=classic;html=1;rounded=0;exitX=0.567;exitY=0.983;exitDx=0;exitDy=0;exitPerimeter=0;entryX=1;entryY=0.5;entryDx=0;entryDy=0;fillColor=#d5e8d4;strokeColor=#82b366;" edge="1" parent="1" source="qYFcMBaQuR15zJ8DIfbp-1" target="qYFcMBaQuR15zJ8DIfbp-6">
          <mxGeometry width="50" height="50" relative="1" as="geometry">
            <mxPoint x="390" y="320" as="sourcePoint" />
            <mxPoint x="440" y="270" as="targetPoint" />
          </mxGeometry>
        </mxCell>
        <mxCell id="qYFcMBaQuR15zJ8DIfbp-23" value="" style="group" vertex="1" connectable="0" parent="1">
          <mxGeometry x="370" y="210" width="130" height="40" as="geometry" />
        </mxCell>
        <mxCell id="qYFcMBaQuR15zJ8DIfbp-18" value="" style="rounded=0;whiteSpace=wrap;html=1;fillColor=#d5e8d4;strokeColor=#82b366;" vertex="1" parent="qYFcMBaQuR15zJ8DIfbp-23">
          <mxGeometry width="130" height="40" as="geometry" />
        </mxCell>
        <mxCell id="qYFcMBaQuR15zJ8DIfbp-19" value="SERVISAS" style="text;strokeColor=none;align=center;fillColor=none;html=1;verticalAlign=middle;whiteSpace=wrap;rounded=0;" vertex="1" parent="qYFcMBaQuR15zJ8DIfbp-23">
          <mxGeometry x="40" y="1" width="60" height="30" as="geometry" />
        </mxCell>
        <mxCell id="qYFcMBaQuR15zJ8DIfbp-22" value="service/user.service.js" style="text;strokeColor=none;align=center;fillColor=none;html=1;verticalAlign=middle;whiteSpace=wrap;rounded=0;" vertex="1" parent="qYFcMBaQuR15zJ8DIfbp-23">
          <mxGeometry x="37" y="10" width="60" height="30" as="geometry" />
        </mxCell>
        <mxCell id="qYFcMBaQuR15zJ8DIfbp-26" value="" style="endArrow=classic;html=1;rounded=0;exitX=1;exitY=1;exitDx=0;exitDy=0;entryX=1;entryY=0.25;entryDx=0;entryDy=0;fillColor=#e1d5e7;strokeColor=#9673a6;" edge="1" parent="1" source="qYFcMBaQuR15zJ8DIfbp-12" target="qYFcMBaQuR15zJ8DIfbp-18">
          <mxGeometry width="50" height="50" relative="1" as="geometry">
            <mxPoint x="390" y="320" as="sourcePoint" />
            <mxPoint x="440" y="270" as="targetPoint" />
          </mxGeometry>
        </mxCell>
        <mxCell id="qYFcMBaQuR15zJ8DIfbp-27" value="" style="endArrow=classic;html=1;rounded=0;fillColor=#d5e8d4;strokeColor=#82b366;entryX=0.5;entryY=1;entryDx=0;entryDy=0;exitX=0;exitY=0;exitDx=0;exitDy=0;" edge="1" parent="1" source="qYFcMBaQuR15zJ8DIfbp-18" target="qYFcMBaQuR15zJ8DIfbp-14">
          <mxGeometry width="50" height="50" relative="1" as="geometry">
            <mxPoint x="510" y="210" as="sourcePoint" />
            <mxPoint x="530" y="130" as="targetPoint" />
          </mxGeometry>
        </mxCell>
        <mxCell id="qYFcMBaQuR15zJ8DIfbp-32" value="" style="group" vertex="1" connectable="0" parent="1">
          <mxGeometry x="320" y="20" width="120" height="61" as="geometry" />
        </mxCell>
        <mxCell id="qYFcMBaQuR15zJ8DIfbp-28" value="" style="rounded=0;whiteSpace=wrap;html=1;fillColor=#ffe6cc;strokeColor=#d79b00;" vertex="1" parent="qYFcMBaQuR15zJ8DIfbp-32">
          <mxGeometry y="1" width="120" height="60" as="geometry" />
        </mxCell>
        <mxCell id="qYFcMBaQuR15zJ8DIfbp-29" value="RAUTERIS" style="text;strokeColor=none;align=center;fillColor=none;html=1;verticalAlign=middle;whiteSpace=wrap;rounded=0;" vertex="1" parent="qYFcMBaQuR15zJ8DIfbp-32">
          <mxGeometry x="30" width="60" height="30" as="geometry" />
        </mxCell>
        <mxCell id="qYFcMBaQuR15zJ8DIfbp-30" value="ENDPOINTAI" style="text;strokeColor=none;align=center;fillColor=none;html=1;verticalAlign=middle;whiteSpace=wrap;rounded=0;" vertex="1" parent="qYFcMBaQuR15zJ8DIfbp-32">
          <mxGeometry x="30" y="15" width="60" height="30" as="geometry" />
        </mxCell>
        <mxCell id="qYFcMBaQuR15zJ8DIfbp-31" value="router/user.router.js" style="text;strokeColor=none;align=center;fillColor=none;html=1;verticalAlign=middle;whiteSpace=wrap;rounded=0;" vertex="1" parent="qYFcMBaQuR15zJ8DIfbp-32">
          <mxGeometry x="30" y="31" width="60" height="30" as="geometry" />
        </mxCell>
        <mxCell id="qYFcMBaQuR15zJ8DIfbp-33" value="" style="endArrow=classic;html=1;rounded=0;exitX=1;exitY=0.25;exitDx=0;exitDy=0;entryX=0.5;entryY=0;entryDx=0;entryDy=0;fillColor=#e1d5e7;strokeColor=#9673a6;" edge="1" parent="1" source="qYFcMBaQuR15zJ8DIfbp-28" target="qYFcMBaQuR15zJ8DIfbp-13">
          <mxGeometry width="50" height="50" relative="1" as="geometry">
            <mxPoint x="390" y="320" as="sourcePoint" />
            <mxPoint x="440" y="270" as="targetPoint" />
          </mxGeometry>
        </mxCell>
        <mxCell id="qYFcMBaQuR15zJ8DIfbp-34" value="" style="shape=cylinder3;whiteSpace=wrap;html=1;boundedLbl=1;backgroundOutline=1;size=15;" vertex="1" parent="1">
          <mxGeometry x="640" y="340" width="60" height="80" as="geometry" />
        </mxCell>
        <mxCell id="qYFcMBaQuR15zJ8DIfbp-35" value="DB" style="text;strokeColor=none;align=center;fillColor=none;html=1;verticalAlign=middle;whiteSpace=wrap;rounded=0;" vertex="1" parent="1">
          <mxGeometry x="640" y="340" width="60" height="30" as="geometry" />
        </mxCell>
        <mxCell id="qYFcMBaQuR15zJ8DIfbp-36" value="Įrašom&lt;div&gt;duomenis&lt;/div&gt;" style="text;strokeColor=none;align=center;fillColor=none;html=1;verticalAlign=middle;whiteSpace=wrap;rounded=0;" vertex="1" parent="1">
          <mxGeometry x="640" y="380" width="60" height="30" as="geometry" />
        </mxCell>
        <mxCell id="qYFcMBaQuR15zJ8DIfbp-37" value="" style="endArrow=classic;html=1;rounded=0;entryX=1;entryY=0.5;entryDx=0;entryDy=0;fillColor=#e1d5e7;strokeColor=#9673a6;exitX=1;exitY=0.75;exitDx=0;exitDy=0;" edge="1" parent="1" source="qYFcMBaQuR15zJ8DIfbp-18" target="qYFcMBaQuR15zJ8DIfbp-35">
          <mxGeometry width="50" height="50" relative="1" as="geometry">
            <mxPoint x="620" y="260" as="sourcePoint" />
            <mxPoint x="440" y="270" as="targetPoint" />
          </mxGeometry>
        </mxCell>
        <mxCell id="qYFcMBaQuR15zJ8DIfbp-38" value="" style="endArrow=classic;html=1;rounded=0;exitX=0;exitY=0.5;exitDx=0;exitDy=0;entryX=0.75;entryY=1;entryDx=0;entryDy=0;fillColor=#d5e8d4;strokeColor=#82b366;" edge="1" parent="1" source="qYFcMBaQuR15zJ8DIfbp-35" target="qYFcMBaQuR15zJ8DIfbp-18">
          <mxGeometry width="50" height="50" relative="1" as="geometry">
            <mxPoint x="390" y="320" as="sourcePoint" />
            <mxPoint x="440" y="270" as="targetPoint" />
          </mxGeometry>
        </mxCell>
        <mxCell id="qYFcMBaQuR15zJ8DIfbp-43" value="" style="group" vertex="1" connectable="0" parent="1">
          <mxGeometry x="430" y="360" width="130" height="51" as="geometry" />
        </mxCell>
        <mxCell id="qYFcMBaQuR15zJ8DIfbp-39" value="" style="rounded=0;whiteSpace=wrap;html=1;fillColor=#dae8fc;strokeColor=#6c8ebf;" vertex="1" parent="qYFcMBaQuR15zJ8DIfbp-43">
          <mxGeometry y="2" width="130" height="40" as="geometry" />
        </mxCell>
        <mxCell id="qYFcMBaQuR15zJ8DIfbp-40" value="TOKENAI" style="text;strokeColor=none;align=center;fillColor=none;html=1;verticalAlign=middle;whiteSpace=wrap;rounded=0;" vertex="1" parent="qYFcMBaQuR15zJ8DIfbp-43">
          <mxGeometry x="40" width="60" height="30" as="geometry" />
        </mxCell>
        <mxCell id="qYFcMBaQuR15zJ8DIfbp-41" value="service/token.ervice.js&lt;div&gt;&lt;br&gt;&lt;/div&gt;" style="text;strokeColor=none;align=center;fillColor=none;html=1;verticalAlign=middle;whiteSpace=wrap;rounded=0;" vertex="1" parent="qYFcMBaQuR15zJ8DIfbp-43">
          <mxGeometry x="40" y="20" width="56" height="31" as="geometry" />
        </mxCell>
        <mxCell id="qYFcMBaQuR15zJ8DIfbp-44" value="" style="endArrow=classic;html=1;rounded=0;exitX=0.054;exitY=0.05;exitDx=0;exitDy=0;exitPerimeter=0;entryX=0.331;entryY=0.925;entryDx=0;entryDy=0;entryPerimeter=0;fillColor=#d5e8d4;strokeColor=#82b366;" edge="1" parent="1" source="qYFcMBaQuR15zJ8DIfbp-39" target="qYFcMBaQuR15zJ8DIfbp-18">
          <mxGeometry width="50" height="50" relative="1" as="geometry">
            <mxPoint x="390" y="320" as="sourcePoint" />
            <mxPoint x="440" y="270" as="targetPoint" />
          </mxGeometry>
        </mxCell>
        <mxCell id="qYFcMBaQuR15zJ8DIfbp-45" value="" style="endArrow=classic;html=1;rounded=0;fillColor=#f8cecc;strokeColor=#b85450;exitX=0.5;exitY=1;exitDx=0;exitDy=0;entryX=1;entryY=0;entryDx=0;entryDy=0;" edge="1" parent="1" source="qYFcMBaQuR15zJ8DIfbp-22" target="qYFcMBaQuR15zJ8DIfbp-40">
          <mxGeometry width="50" height="50" relative="1" as="geometry">
            <mxPoint x="390" y="320" as="sourcePoint" />
            <mxPoint x="440" y="270" as="targetPoint" />
          </mxGeometry>
        </mxCell>
        <mxCell id="qYFcMBaQuR15zJ8DIfbp-50" value="" style="group" vertex="1" connectable="0" parent="1">
          <mxGeometry x="160" y="360" width="160" height="45" as="geometry" />
        </mxCell>
        <mxCell id="qYFcMBaQuR15zJ8DIfbp-46" value="" style="rounded=0;whiteSpace=wrap;html=1;fillColor=#fff2cc;strokeColor=#d6b656;" vertex="1" parent="qYFcMBaQuR15zJ8DIfbp-50">
          <mxGeometry width="160" height="40" as="geometry" />
        </mxCell>
        <mxCell id="qYFcMBaQuR15zJ8DIfbp-47" value="PAŠTAS" style="text;strokeColor=none;align=center;fillColor=none;html=1;verticalAlign=middle;whiteSpace=wrap;rounded=0;" vertex="1" parent="qYFcMBaQuR15zJ8DIfbp-50">
          <mxGeometry x="50" width="60" height="30" as="geometry" />
        </mxCell>
        <mxCell id="qYFcMBaQuR15zJ8DIfbp-48" value="service/mail.service.js" style="text;strokeColor=none;align=center;fillColor=none;html=1;verticalAlign=middle;whiteSpace=wrap;rounded=0;" vertex="1" parent="qYFcMBaQuR15zJ8DIfbp-50">
          <mxGeometry x="50" y="15" width="60" height="30" as="geometry" />
        </mxCell>
        <mxCell id="qYFcMBaQuR15zJ8DIfbp-51" value="" style="endArrow=classic;html=1;rounded=0;fillColor=#f8cecc;strokeColor=#b85450;exitX=0;exitY=1;exitDx=0;exitDy=0;" edge="1" parent="1" source="qYFcMBaQuR15zJ8DIfbp-18" target="qYFcMBaQuR15zJ8DIfbp-46">
          <mxGeometry width="50" height="50" relative="1" as="geometry">
            <mxPoint x="390" y="320" as="sourcePoint" />
            <mxPoint x="440" y="270" as="targetPoint" />
          </mxGeometry>
        </mxCell>
        <mxCell id="qYFcMBaQuR15zJ8DIfbp-52" value="" style="endArrow=classic;html=1;rounded=0;fillColor=#d5e8d4;strokeColor=#82b366;exitX=0.1;exitY=0.025;exitDx=0;exitDy=0;exitPerimeter=0;entryX=0;entryY=0.5;entryDx=0;entryDy=0;" edge="1" parent="1" source="qYFcMBaQuR15zJ8DIfbp-46" target="qYFcMBaQuR15zJ8DIfbp-18">
          <mxGeometry width="50" height="50" relative="1" as="geometry">
            <mxPoint x="390" y="320" as="sourcePoint" />
            <mxPoint x="440" y="270" as="targetPoint" />
          </mxGeometry>
        </mxCell>
        <mxCell id="qYFcMBaQuR15zJ8DIfbp-53" value="&lt;font style=&quot;font-size: 22px;&quot;&gt;SkyGym backendas&lt;/font&gt;" style="text;strokeColor=none;align=center;fillColor=none;html=1;verticalAlign=middle;whiteSpace=wrap;rounded=0;" vertex="1" parent="1">
          <mxGeometry x="330" y="450" width="60" height="30" as="geometry" />
        </mxCell>
      </root>
    </mxGraphModel>
  </diagram>
</mxfile>
